<?xml version="1.0" encoding="UTF-8"?>
<svg xmlns="http://www.w3.org/2000/svg" xmlns:xlink="http://www.w3.org/1999/xlink" width="25px" height="25px" viewBox="0 0 25 25" version="1.1">
<g id="surface1">
<path style=" stroke:none;fill-rule:nonzero;fill:rgb(0%,0%,0%);fill-opacity:1;" d="M 6.25 17.707031 C 6.25 15.625 10.417969 14.480469 12.5 14.480469 C 14.582031 14.480469 18.75 15.625 18.75 17.707031 L 18.75 18.75 L 6.25 18.75 M 15.625 9.375 C 15.625 11.101562 14.226562 12.5 12.5 12.5 C 10.773438 12.5 9.375 11.101562 9.375 9.375 C 9.375 7.648438 10.773438 6.25 12.5 6.25 C 14.226562 6.25 15.625 7.648438 15.625 9.375 M 3.125 5.207031 L 3.125 19.792969 C 3.125 20.941406 4.058594 21.875 5.207031 21.875 L 19.792969 21.875 C 20.941406 21.875 21.875 20.941406 21.875 19.792969 L 21.875 5.207031 C 21.875 4.058594 20.941406 3.125 19.792969 3.125 L 5.207031 3.125 C 4.050781 3.125 3.125 4.0625 3.125 5.207031 Z M 3.125 5.207031 "/>
</g>
</svg>
