<?xml version="1.0" encoding="UTF-8"?>
<svg xmlns="http://www.w3.org/2000/svg" xmlns:xlink="http://www.w3.org/1999/xlink" width="25px" height="25px" viewBox="0 0 25 25" version="1.1">
<g id="surface1">
<path style=" stroke:none;fill-rule:nonzero;fill:rgb(0%,0%,0%);fill-opacity:1;" d="M 8.261719 11.707031 C 8.0625 11.457031 7.6875 11.394531 7.425781 11.59375 C 7.355469 11.65625 7.292969 11.730469 7.25 11.8125 L 2.144531 22.03125 C 1.988281 22.332031 2.113281 22.699219 2.417969 22.855469 C 2.5 22.917969 2.605469 22.917969 2.699219 22.917969 L 9.800781 22.917969 C 10.03125 22.917969 10.25 22.792969 10.355469 22.582031 C 11.886719 19.40625 10.9375 14.582031 8.261719 11.707031 M 12.011719 2.40625 C 9.425781 6.394531 9.125 11.457031 11.21875 15.71875 L 14.644531 22.582031 C 14.761719 22.792969 14.96875 22.917969 15.199219 22.917969 L 22.300781 22.917969 C 22.640625 22.917969 22.917969 22.640625 22.917969 22.300781 C 22.917969 22.207031 22.917969 22.113281 22.855469 22.03125 C 22.855469 22.03125 13.292969 2.886719 13.019531 2.40625 C 12.90625 2.125 12.5625 2 12.269531 2.144531 C 12.15625 2.199219 12.0625 2.292969 12.011719 2.40625 Z M 12.011719 2.40625 "/>
</g>
</svg>
